<svg id="Layer_1" data-name="Layer 1" xmlns="http://www.w3.org/2000/svg" viewBox="0 0 144 144"><defs><style>.cls-1{fill:#fffefe;}.cls-2{fill:#5e4a9e;}.cls-3{fill:#010101;}.cls-4{fill:#1eab4b;}</style></defs><path class="cls-1" d="M63.76,0H137c.34,0,.42.08.42.42q0,71.58,0,143.16c0,.34-.08.42-.42.42H7c-.34,0-.42-.08-.42-.42Q6.61,71.79,6.6,0h57c.05.23-.14.36-.25.51a119.06,119.06,0,0,0-7,10.62A116.29,116.29,0,0,0,50.18,23c-1,2.18-1.89,4.39-2.72,6.63-.11.28-.19.57-.56.61-1.19-.08-2.36-.33-3.55-.48-2.59-.33-5.18-.61-7.78-.81-4.14-.31-8.3-.28-12.45-.24-1.33,0-2.66.15-4,.23-1.87.11-3.73.31-5.59.49-.63.06-.68.08-.86.69q-2.16,7.62-3.55,15.42-1,5.53-1.54,11.12c-.21,2.1-.36,4.21-.51,6.32-.27,4.14-.3,8.28-.24,12.42,0,1.78.11,3.58.23,5.37.1,1.48.19,3,.31,4.44s.3,3.15.49,4.72q.78,6.69,2.17,13.3,1.13,5.34,2.62,10.59a.82.82,0,0,0,.8.67c2.36.22,4.73.44,7.1.58,3.37.21,6.74.19,10.12.14,1.86,0,3.73-.17,5.59-.31,2.65-.2,5.28-.51,7.91-.86.75-.1,1.49-.21,2.23-.34.51-.09.54-.14.35-.64-1.11-2.94-2-5.94-2.9-9a115.63,115.63,0,0,1-3.53-17.67c-.29-2.41-.52-4.82-.66-7.24-.09-1.73-.17-3.46-.17-5.19,0-.87-.12-1.74-.09-2.62.09-2.2.13-4.41.26-6.61A119.81,119.81,0,0,1,45,36c.57-1.8,1.19-3.58,1.83-5.36a1.24,1.24,0,0,1,.17-.37c.18-.2.41-.14.64-.11,3,.5,6,1.17,9,1.91a119.28,119.28,0,0,1,16.87,5.64q4.23,1.76,8.3,3.86a124.33,124.33,0,0,1,14.16,8.58c2.93,2.07,5.78,4.25,8.52,6.57,1.72,1.46,3.38,3,5,4.52,1.38,1.3,2.73,2.65,4.06,4,1.84,1.89,3.59,3.87,5.28,5.89.56.65.55.67,1.08,0a122.73,122.73,0,0,0,9.15-12.85A119.69,119.69,0,0,0,135,47.52q1-2.15,2-4.34a.74.74,0,0,0-.18-1c-1.34-1.31-2.62-2.67-4-4-2.08-2-4.19-3.91-6.37-5.77-2.61-2.23-5.29-4.39-8-6.45a156.65,156.65,0,0,0-14.81-9.79c-3.58-2.08-7.26-4-11-5.78A151.47,151.47,0,0,0,78.52,4.63C74.11,3.06,69.65,1.68,65.11.54l-1-.29C64,.21,63.76.24,63.76,0Z"/><path class="cls-2" d="M47.06,30.16a1.46,1.46,0,0,0,.32-.69A118.18,118.18,0,0,1,63.58,0h.18c1,.38,2.08.58,3.13.86a151.39,151.39,0,0,1,35.84,14.77,152.27,152.27,0,0,1,24.38,17.27q5.14,4.47,9.89,9.36a.57.57,0,0,1,.14.77,120.39,120.39,0,0,1-12.33,21.84c-1.65,2.33-3.4,4.57-5.19,6.79-.21.26-.3.22-.49,0a121.27,121.27,0,0,0-10.4-11,120.5,120.5,0,0,0-20.8-15.56A119.22,119.22,0,0,0,58.86,32.78C55,31.71,51,30.86,47.08,30.17t-.06,0v0S47,30.16,47.06,30.16Z"/><path class="cls-3" d="M47.06,30.16h0a6.63,6.63,0,0,1-.51,1.56,122.18,122.18,0,0,0-5,18.72c-.62,3.37-1.11,6.76-1.44,10.18a118.37,118.37,0,0,0-.42,16.63c.13,2.88.35,5.75.69,8.62A117.79,117.79,0,0,0,47,113.19c.19.53.19.51-.39.61-2.43.42-4.87.73-7.32,1a115.8,115.8,0,0,1-12.49.61c-2.84,0-5.68-.11-8.51-.32-1.74-.13-3.48-.27-5.21-.51-.22,0-.33-.08-.4-.33-1.32-4.54-2.41-9.14-3.3-13.79q-.91-4.83-1.53-9.7c-.28-2.31-.5-4.63-.68-7-.38-4.72-.5-9.44-.44-14.16,0-3.48.23-7,.52-10.43q.36-4.3,1-8.58c.47-3.34,1.05-6.67,1.76-10,.77-3.65,1.66-7.28,2.7-10.88.08-.28.19-.41.48-.43,1.77-.16,3.53-.34,5.3-.49,3.74-.3,7.48-.35,11.22-.28,3,.06,6.07.22,9.09.53C41.52,29.36,44.29,29.74,47.06,30.16Z"/><path class="cls-4" d="M63.67,143.84c-.09,0-.15-.17-.24-.3a116.75,116.75,0,0,1-8.1-12.32,121.52,121.52,0,0,1-8-17.13c-.12-.32-.07-.41.26-.47A116.16,116.16,0,0,0,68,108.21a119.68,119.68,0,0,0,21-10A121.73,121.73,0,0,0,108,83.9a120.29,120.29,0,0,0,11.09-11.6c.26-.31.36-.29.61,0A121.87,121.87,0,0,1,137.19,101a.5.5,0,0,1-.17.65,152.9,152.9,0,0,1-30.23,24.25,152.49,152.49,0,0,1-29.05,13.81Q71,142,64,143.77Z"/></svg>