<svg id="Layer_1" data-name="Layer 1" xmlns="http://www.w3.org/2000/svg" viewBox="0 0 144 144"><defs><style>.cls-1{fill:#a5ce3a;}.cls-2{fill:#fff;}</style></defs><rect class="cls-1" x="-5.21" y="-2.91" width="152.85" height="163.39"/><g id="Symbols"><g id="hero"><g id="Group-4"><g id="vector_iD_icon" data-name="vector iD icon"><path id="Path" class="cls-1" d="M144,72A72,72,0,1,1,72,0,72,72,0,0,1,144,72Z"/><g id="Group"><polygon id="Path-2" data-name="Path" class="cls-2" points="47.81 104.07 39.13 104.07 39.13 44.11 47.81 44.11 47.81 71.21 47.81 104.07"/><path id="Shape" class="cls-2" d="M60.56,44.11H84c22.33,0,32.15,15.84,32.15,30,0,15.39-12.13,30-32,30H60.56Zm8.68,52.23H83.06c19.68,0,24.19-14.83,24.19-22.22,0-12-7.73-22.23-24.65-22.23H69.24Z"/><path id="Path-3" data-name="Path" class="cls-2" d="M49.17,31.62A5.7,5.7,0,1,1,43.47,26,5.7,5.7,0,0,1,49.17,31.62Z"/></g></g></g></g></g></svg>