<svg id="Layer_1" data-name="Layer 1" xmlns="http://www.w3.org/2000/svg" viewBox="0 0 144 144"><defs><style>.cls-1{fill:#0478b8;}.cls-2{fill:#fff;}</style></defs><rect class="cls-1" x="-3.18" y="-9.76" width="157.06" height="167.08"/><path class="cls-1" d="M0,133V10.68C.47,9.41.28,8,1,6.78,2.89,3.34,5.42.69,9.62.25A1.93,1.93,0,0,0,10.69,0H132.74c1.3.36,2.73.19,3.95.83,4,2.09,6.72,5.1,7,9.87.1,1.54.12,3.08.12,4.62q0,57.66,0,115.31a13.23,13.23,0,0,1-.87,5.91c-2.4,4.94-6.34,7.36-11.88,7.29-6.13-.07-12.25,0-18.37,0q-49.87,0-99.73,0c-2,0-4.05,0-5.89-.91C3.36,141,.64,138.26.21,133.84A1.44,1.44,0,0,0,0,133Z"/><path class="cls-2" d="M78.82,61.6a33.63,33.63,0,0,1,6.09-5.74,24.15,24.15,0,0,1,10.71-3.81,35.12,35.12,0,0,1,16.47,1.37c6.65,2.38,10.86,7.19,13.38,13.65,2.32,5.93,3,12.16,3,18.43.12,12.81.07,25.63.08,38.44,0,2.5-1.4,3.9-3.91,3.92q-8.2,0-16.42,0c-2.5,0-3.85-1.45-3.85-4,0-11.79,0-23.57,0-35.36a26.49,26.49,0,0,0-1.31-8.69c-1.49-4.31-4.36-7.06-9-7.64-4.89-.63-9.11.69-11.94,5a20.92,20.92,0,0,0-3.35,11.55c0,11.5,0,23,0,34.51,0,3.31-1.26,4.58-4.55,4.59-5,0-9.92,0-14.87,0-2.93,0-4.28-1.36-4.28-4.3V57.05c0-2.89,1.41-4.26,4.33-4.26H74.6c2.8,0,4.2,1.42,4.22,4.22C78.83,58.54,78.82,60.07,78.82,61.6Z"/><path class="cls-2" d="M44.47,90.38v32.53c0,3.72-1.24,5-5,5h-14c-3.29,0-4.67-1.41-4.68-4.71V57.53c0-3.36,1.4-4.74,4.78-4.74H39.74c3.38,0,4.72,1.35,4.73,4.77Z"/><path class="cls-2" d="M32.65,46.41A15.27,15.27,0,1,1,48,31.22,15.2,15.2,0,0,1,32.65,46.41Z"/></svg>