<svg id="Layer_1" data-name="Layer 1" xmlns="http://www.w3.org/2000/svg" viewBox="0 0 144 144"><defs><style>.cls-1{fill:#34679a;}.cls-2{fill:#2e5d8a;}.cls-3{fill:#2c5c8b;}</style></defs><path class="cls-1" d="M44.84,113.83h0c-1.51-3.89-1.15-4.67,2.62-4.61,2.84,0,4.14-1.15,4.23-3.89.05-1.91.16-3.83.16-5.74,0-16.51-.07-33,.06-49.53,0-3.89-1.29-6.5-4.87-8.09-1.16-.51-2.77-.88-2.76-2.7s1.78-1.94,2.92-2.45c4.26-1.92,8.59-3.66,12.86-5.54,1.37-.6,2.43-.64,3.22.78,1.52.7,2.37,2.49,4.24,2.62C72.3,32,77.3,30.13,82.92,31c6.68,1.05,11.13,5.21,14.62,10.67,1.9.37,3.11,1.74,4.38,3q19.47,19.47,39,38.93c1,1,2,1.84,3.07,2.76,0-27.93,0-55.85.06-83.77C144,.43,143.57,0,141.38,0Q70.72.12.06.06.06,70.72,0,141.38C0,143.57.43,144,2.62,144c23.87-.1,47.74-.06,71.62-.06q-12-12.15-24-24.31C48.43,117.74,46.32,116.07,44.84,113.83Z"/><path class="cls-2" d="M143.94,86.39c-2.15,1-3.13-.82-4.26-1.93Q124,69,108.5,53.33c-2.91-2.94-6.11-5.62-8.56-9a3.47,3.47,0,0,0-1.82-1.19c4.63,12.34.73,27.39-9.3,34.88-6.51,4.86-13.8,5.9-21.46,3.75-3-.84-3.33,0-3.22,2.63.27,6.48.26,13,.42,19.46.12,5,.37,5.15,5.32,5.34,1.09,0,2.74-.76,3,1.34s-.13,3.37-2.84,3.14a142.82,142.82,0,0,0-23.49,0,2.81,2.81,0,0,0,.85,1.37C56,122.91,64,131.48,72.31,139.69c1.12,1.11,2.91,2.1,1.93,4.25,22.48,0,45,0,67.46.05,1.91,0,2.3-.38,2.29-2.29C143.9,123.26,143.94,104.82,143.94,86.39Z"/><path class="cls-2" d="M101.92,44.7c-1.27-1.27-2.48-2.64-4.38-3,.21.48.4,1,.58,1.45a3.47,3.47,0,0,1,1.82,1.19c2.45,3.38,5.65,6.06,8.56,9Q124,69,139.68,84.46c1.13,1.11,2.11,2.91,4.26,1.93-1-.92-2.1-1.79-3.07-2.76Q121.39,64.19,101.92,44.7Z"/><path class="cls-2" d="M72.31,139.69C64,131.48,56,122.91,47.39,115.05a2.81,2.81,0,0,1-.85-1.37l-1.7.15h0c1.48,2.24,3.59,3.91,5.44,5.8q12,12.18,24,24.31C75.22,141.79,73.43,140.8,72.31,139.69Z"/><path class="cls-3" d="M64.86,36.34a1.52,1.52,0,0,1,.8-1,9.92,9.92,0,0,1-1.08-.75A5.62,5.62,0,0,1,64.86,36.34Z"/><path class="cls-3" d="M64.58,34.56a9.92,9.92,0,0,0,1.08.75,12.3,12.3,0,0,1,1.86-.63c-1.87-.13-2.72-1.92-4.24-2.62h0A9.48,9.48,0,0,1,64.58,34.56Z"/><path class="cls-3" d="M66.47,35.67a3.28,3.28,0,0,1-.81-.36,1.52,1.52,0,0,0-.8,1,5.31,5.31,0,0,1,0,.68,2.86,2.86,0,0,1,0-.68,5.62,5.62,0,0,0-.28-1.78,8.47,8.47,0,0,0-1.25-.83,11.09,11.09,0,0,0,.92,4Z"/><path class="cls-3" d="M64.81,37a5.31,5.31,0,0,0,0-.68A2.86,2.86,0,0,0,64.81,37Z"/><path class="cls-3" d="M63.33,33.73a8.47,8.47,0,0,1,1.25.83,9.48,9.48,0,0,0-1.3-2.5h0C63.28,32.62,63.3,33.18,63.33,33.73Z"/><path class="cls-3" d="M66.47,35.67l1-1a12.3,12.3,0,0,0-1.86.63A3.28,3.28,0,0,0,66.47,35.67Z"/><path class="cls-2" d="M65.77,41.15a4.57,4.57,0,0,0-1.68,3.59c.07,8,0,16,.06,23.95A8.25,8.25,0,0,0,66,74.34c5.15,5.87,15.61,4.74,19.33-2.12a23,23,0,0,0,2.46-11.71c-.11-6-.94-11.87-4.19-17.1C79.48,36.84,71.44,35.87,65.77,41.15Z"/></svg>